<?xml version="1.0" encoding="utf-8"?>
<!-- Generator: Adobe Illustrator 19.2.0, SVG Export Plug-In . SVG Version: 6.00 Build 0)  -->
<svg version="1.1" id="Layer_1" xmlns="http://www.w3.org/2000/svg" xmlns:xlink="http://www.w3.org/1999/xlink" x="0px" y="0px"
	 viewBox="0 0 60 60" style="enable-background:new 0 0 60 60;" xml:space="preserve">
<style type="text/css">
	.st0{fill:#fff;}
</style>
<title>sector icons</title>
<path class="st0" d="M51.4,15c-0.5-0.3-1.1-0.1-1.4,0.4l-1.4,2.4L32.1,8.3L33.4,6c0.3-0.5,0.1-1.1-0.4-1.4c-0.5-0.3-1.1-0.1-1.4,0.4
	l-1.4,2.5c-2.8,5.1-0.5,9.3,2.6,13c-5-0.8-9.7-0.4-12.4,4.6c-2.5,4.6-0.8,8.5,2.1,12c-4.4-0.7-8.7-0.1-11.4,4.6l-1.4,2.5
	c-0.3,0.5-0.1,1.1,0.4,1.4c0.2,0.1,0.3,0.1,0.5,0.1c0.3,0,0.7-0.2,0.9-0.5l1.3-2.3l16.7,9.6l-1.3,2.3c-0.3,0.5-0.1,1.1,0.4,1.4
	c0.2,0.1,0.3,0.1,0.5,0.1c0.3,0,0.7-0.2,0.9-0.5l1.4-2.5c0.1-0.2,0.2-0.4,0.3-0.6c0,0,0.1-0.1,0.1-0.1c0-0.1,0-0.1,0-0.2
	c2-4.5,0-8.3-3.2-11.8c4.7,1,9.5,0.7,12.2-4.4c2.7-4.9,0.5-9-2.5-12.6c4.6,0.7,9.2,0.2,12-4.7l1.4-2.5C52.1,15.9,51.9,15.3,51.4,15z
	 M30.3,50.6L14,41.2c2.2-2.5,5.6-2.9,11-1.5c0.1,0.1,0.1,0.1,0.2,0.2C29.2,43.7,31.4,46.9,30.3,50.6z M26.2,37.9
	c-0.1,0-0.2-0.1-0.3-0.1c-3.8-3.8-5.9-7.1-4-11.1l16.5,9.5C36.1,39.2,32.5,39.7,26.2,37.9z M39.4,34.5L22.9,25
	c2.5-3.3,6.6-3.2,12.2-2C39.2,27.2,41.2,30.5,39.4,34.5z M36.1,21.1c-3.8-4-6-7.3-4.9-10.9l16.2,9.3C44.9,22.2,41.2,22.2,36.1,21.1z
	"/>
</svg>
