<?xml version="1.0" encoding="utf-8"?>
<!-- Generator: Adobe Illustrator 19.2.0, SVG Export Plug-In . SVG Version: 6.00 Build 0)  -->
<svg version="1.1" id="Layer_1" xmlns="http://www.w3.org/2000/svg" xmlns:xlink="http://www.w3.org/1999/xlink" x="0px" y="0px"
	 viewBox="0 0 60 60" style="enable-background:new 0 0 60 60;" xml:space="preserve">
<style type="text/css">
	.st0{fill:#fff;}
</style>
<title>sector icons</title>
<path class="st0" d="M45.1,17c-0.1-0.5-0.5-0.9-1-0.9h-5.4v-0.4c0-4.4-3.5-7.9-7.9-7.9h-0.6c-4.4,0-8,3.5-8,7.9v0.4h-5.1
	c-0.5,0-0.9,0.3-1,0.8l-3.2,20l-1.5,12.8c-0.1,0.3,0,0.6,0.2,0.8c0.1,0.2,0.4,0.3,0.7,0.3h36.5c0.3,0,0.6-0.1,0.9-0.2
	c0.2-0.2,0.2-0.5,0.2-0.8L45.1,17z M24.2,15.7c0-3.3,2.7-5.9,6-5.9h0.6c3.3,0,5.9,2.6,5.9,5.9v0.4H24.2V15.7z M13.4,48.8l1.4-11.6
	L17.9,18h4.3v2.5c0,0.6,0.4,1,1,1c0.6,0,1-0.4,1-1V18h12.5v2.5c0,0.6,0.4,1,1,1c0.6,0,1-0.4,1-1V18h4.4l4.5,30.8H13.4z"/>
</svg>
