<?xml version="1.0" encoding="utf-8"?>
<!-- Generator: Adobe Illustrator 19.2.0, SVG Export Plug-In . SVG Version: 6.00 Build 0)  -->
<svg version="1.1" id="Layer_1" xmlns="http://www.w3.org/2000/svg" xmlns:xlink="http://www.w3.org/1999/xlink" x="0px" y="0px"
	 viewBox="0 0 60 60" style="enable-background:new 0 0 60 60;" xml:space="preserve">
<style type="text/css">
	.st0{fill:#fff;}
</style>
<title>sector icons</title>
<g>
	<polygon class="st0" points="45.5,29.7 45.7,29.7 45.5,29.5 	"/>
	<circle class="st0" cx="25.8" cy="21.1" r="1.4"/>
	<circle class="st0" cx="27.9" cy="26" r="1.4"/>
	<circle class="st0" cx="23.1" cy="24.6" r="1.4"/>
	<path class="st0" d="M37,11.9h-9.1h-4.2c-7.6,0-13.3,4.9-13.3,11.4c0,2.4,1.1,4.9,3.3,7.3l0.1,0.1v15.5c0.1,1.4,1.2,2.5,2.6,2.6
		h20.3h9.1c1.3-0.1,2.3-1.3,2.2-2.6V30.7l0.1-0.1c2.2-1.8,3.5-4.4,3.5-7.3C51.5,17,45,11.9,37,11.9z M37.1,29.9v15.7
		c0,0.6-0.5,1.2-1.1,1.3H17.1c-0.7-0.1-1.2-0.7-1.3-1.3V29.7c-2.3-2-3.4-4.1-3.4-6.4c0-5.4,4.8-9.4,11.4-9.4H28
		c7,0,12.6,4.2,12.6,9.4C40.5,25.9,39.2,28.4,37.1,29.9z M45.9,29.7v15.8c0.1,0.6-0.3,1.2-0.9,1.3h-6c0.1-0.2,0.1-0.4,0.1-0.6V30.7
		l0.1-0.1c2.1-1.9,3.3-4.5,3.4-7.3c0-3.9-2.5-7.3-6.4-9.4H37c6.9,0,12.5,4.2,12.5,9.4C49.5,25.8,48.3,28,45.9,29.7z"/>
</g>
</svg>
