<?xml version="1.0" encoding="utf-8"?>
<!-- Generator: Adobe Illustrator 19.2.0, SVG Export Plug-In . SVG Version: 6.00 Build 0)  -->
<svg version="1.1" id="Layer_1" xmlns="http://www.w3.org/2000/svg" xmlns:xlink="http://www.w3.org/1999/xlink" x="0px" y="0px"
	 viewBox="0 0 60 60" style="enable-background:new 0 0 60 60;" xml:space="preserve">
<style type="text/css">
	.st0{fill:#fff;}
</style>
<title>sector icons</title>
<g>
	<path class="st0" d="M48.7,56.4h-4.3l-4.1-16.1c0-0.1,0-0.2,0-0.3c0-0.4-0.1-0.6-0.3-0.8l-4.3-16.8h0.9c0.5,0,1-0.4,1-1
		c0-0.6-0.4-1-1-1H23.8c-0.6,0-1,0.4-1,1c0,0.6,0.4,1,1,1h1l-9,34h-4.3c-0.6,0-1,0.4-1,1c0,0.6,0.4,1,1,1h5.1h27h5.1
		c0.5,0,0.9-0.4,0.9-1C49.7,56.8,49.3,56.4,48.7,56.4z M33.7,22.4l3.9,15l-12.3-8.6l1.7-6.4H33.7z M24.7,30.9l12.7,8.9L19.6,50.3
		L24.7,30.9z M18,56.4l0.8-3.2l19.7-11.6l3.8,14.9H18z"/>
	<path class="st0" d="M31.3,17l1.1-0.2c0.7-0.2,1.3-0.2,2-0.2c0.6,0,1.2,0.1,1.7,0.2c0.9,0.2,1.7,0.6,2.5,1.1c0.5,0.3,1,0.4,1.6,0.5
		c0.2,0,0.4,0,0.6-0.1c0.5-0.1,0.9-0.4,1.2-0.8s0.4-0.8,0.4-1.3c0.1-1-0.1-2-0.7-2.8c-0.5-0.7-1.1-1.2-1.9-1.6
		c-0.6-0.3-1.2-0.4-1.8-0.4c-0.3,0-0.7,0-1,0.1c-1,0.2-1.9,0.6-2.7,1.2c-1.2,0.8-2.1,2-2.6,3.3L31.3,17z M35.4,14.5
		c0.6-0.4,1.2-0.7,1.9-0.9c0.2-0.2,0.5-0.2,0.7-0.2c0.3,0,0.7,0.1,1,0.2c0.4,0.2,0.8,0.5,1.1,0.9c0.3,0.4,0.4,0.8,0.4,1.3
		c0,0.1-0.1,0.3-0.1,0.4l-0.1,0.1H40c-0.2,0-0.4-0.1-0.6-0.2c-0.9-0.5-2-1-3-1.2c-0.4-0.1-0.9-0.2-1.3-0.2L35.4,14.5z"/>
	<path class="st0" d="M18.6,17.3c0.3,0.4,0.7,0.7,1.2,0.8c0.2,0.1,0.4,0.1,0.6,0.1c0.6,0,1.1-0.2,1.6-0.5c0.8-0.5,1.7-0.8,2.6-1.1
		c0.6-0.1,1.1-0.2,1.7-0.2c0.7,0,1.3,0.1,2,0.2l1,0.3L29,16c-0.6-1.3-1.5-2.5-2.6-3.3c-0.8-0.6-1.7-1-2.7-1.2
		c-0.4,0-0.8-0.1-1.2-0.1c-0.6,0-1.2,0.1-1.8,0.4c-0.8,0.3-1.4,0.9-1.9,1.6C18.3,14.1,18,15,18.1,16C18.2,16.5,18.3,16.9,18.6,17.3z
		 M20.6,14.4c0.3-0.4,0.6-0.7,1.1-0.9c0.2-0.1,0.5-0.1,0.8-0.1c0.2,0,0.4,0,0.7,0.1c0.7,0.1,1.4,0.4,1.9,0.9l0.3,0.2
		c-0.4,0-0.9,0.1-1.3,0.2c-1,0.3-2.1,0.7-3,1.2c-0.2,0.1-0.4,0.2-0.6,0.2h-0.1c-0.1,0-0.1,0-0.1-0.1c-0.1-0.1-0.1-0.2-0.1-0.4
		C20.2,15.2,20.3,14.8,20.6,14.4z"/>
	<path class="st0" d="M28.5,10.5c0.4,0.7,0.8,1.5,1.1,2.2l0.5,1.2l0.5-1.2c0.3-0.8,0.7-1.5,1.1-2.2c0.5-0.8,0.9-1.7,1.3-2.6
		c0.6-1.8,0.2-4-1.9-4.7C30.9,3.1,30.6,3,30.2,3c-0.3,0-0.7,0.1-1,0.2c-2.1,0.7-2.5,2.9-1.9,4.7C27.7,8.8,28.1,9.7,28.5,10.5z
		 M29.7,5.1C30,5,30.1,5,30.2,5c0.1,0,0.2,0,0.3,0.1c1.2,0.4,0.7,2.1,0.6,2.2c-0.3,0.7-0.6,1.4-1,2.1c-0.4-0.7-0.7-1.4-1-2.1
		C29.1,7.2,28.5,5.5,29.7,5.1z"/>
</g>
</svg>
