<?xml version="1.0" encoding="utf-8"?>
<!-- Generator: Adobe Illustrator 19.2.0, SVG Export Plug-In . SVG Version: 6.00 Build 0)  -->
<svg version="1.1" id="Layer_1" xmlns="http://www.w3.org/2000/svg" xmlns:xlink="http://www.w3.org/1999/xlink" x="0px" y="0px"
	 viewBox="0 0 60 60" style="enable-background:new 0 0 60 60;" xml:space="preserve">
<style type="text/css">
	.st0{fill:#fff;}
	.st1{font-family:'Montserrat-Regular';}
	.st2{font-size:15.23px;}
</style>
<title>sector icons</title>
<path class="st0" d="M41.1,27.3v-0.9c0,0,0-0.1,0-0.1c0-0.1,0-0.2,0-0.3v-6c0-0.2-0.1-0.4-0.2-0.6c0.1-0.4,0.2-0.8,0.2-1.2
	c0-4-6.4-7-14.9-7s-14.9,3-14.9,7c0,0.4,0.1,0.8,0.2,1.2c-0.1,0.2-0.2,0.4-0.2,0.6v6c0,0.3,0.1,0.6,0.1,0.9
	c-0.1,0.1-0.1,0.3-0.1,0.5v6c0,0.3,0.1,0.7,0.1,1c-0.1,0.2-0.1,0.3-0.1,0.5v6c0,4,6.4,7,14.9,7c1.1,0,2.2-0.1,3.3-0.2
	c2.3,3.4,6.2,5.6,10.7,5.6c7.2,0,13-5.8,13-13C53.2,33.4,47.9,27.8,41.1,27.3z M27.3,38.5c-0.1,0-0.2,0-0.2,0c-0.1,0-0.3,0-0.5,0
	c-0.1-0.1-0.3-0.1-0.4-0.1c-7.6,0-12.9-2.6-12.9-5v-3.8c2.1,1.7,5.8,3,10.3,3.3c0.2,0,0.4,0,0.6,0c0.7,0,1.3,0.1,2,0.1
	c0.8,0,1.5,0,2.2-0.1c0.1,0,0.1,0,0.2,0c0.3,0,0.6,0,0.9-0.1C28.4,34.5,27.6,36.4,27.3,38.5z M31.6,30.5c-0.3,0.1-0.6,0.1-1,0.2
	c-0.1,0-0.1,0-0.2,0c-1.4,0.2-2.8,0.3-4.3,0.3c-0.4,0-0.9,0-1.3,0c-0.1,0-0.2,0-0.3,0c-0.3,0-0.6,0-1-0.1c-0.1,0-0.2,0-0.3,0
	c-0.3,0-0.5-0.1-0.8-0.1c-0.2,0-0.4,0-0.6-0.1c-5.2-0.7-8.6-2.8-8.6-4.7v-4.2c2.5,2.1,7.2,3.4,12.9,3.4s10.4-1.3,12.9-3.4V26
	c0,0.5-0.2,1-0.6,1.4c0,0,0,0,0,0C35.9,27.8,33.5,28.9,31.6,30.5z M26.2,13.2c7.6,0,12.9,2.6,12.9,5c0,2.4-5.3,5-12.9,5
	c-7.6,0-12.9-2.6-12.9-5C13.3,15.8,18.6,13.2,26.2,13.2z M26.2,45.9c-7.6,0-12.9-2.6-12.9-5V37c1.8,1.5,4.6,2.5,8.2,3.1
	c0.1,0.1,0.2,0.1,0.3,0.1c1.4,0.2,2.9,0.3,4.5,0.3c0.3,0,0.6,0,0.9-0.1c0,1.9,0.5,3.7,1.2,5.4C27.7,45.9,27,45.9,26.2,45.9z
	 M40.2,51.3c-6.1,0-11-4.9-11-11c0-0.2,0-0.4,0-0.5c0-0.1,0.1-0.2,0.1-0.4c0-0.1,0-0.1,0-0.2c0.6-5.6,5.2-9.9,10.9-9.9
	c6.1,0,11,4.9,11,11C51.2,46.4,46.3,51.3,40.2,51.3z"/>
<text transform="matrix(1 0 0 1 35.3 45.46)" class="st0 st1 st2">$</text>
</svg>
