<?xml version="1.0" encoding="utf-8"?>
<!-- Generator: Adobe Illustrator 19.2.0, SVG Export Plug-In . SVG Version: 6.00 Build 0)  -->
<svg version="1.1" id="Layer_1" xmlns="http://www.w3.org/2000/svg" xmlns:xlink="http://www.w3.org/1999/xlink" x="0px" y="0px"
	 viewBox="0 0 60 60" style="enable-background:new 0 0 60 60;" xml:space="preserve">
<style type="text/css">
	.st0{fill:#fff;}
</style>
<title>sector icons</title>
<g>
	<path class="st0" d="M46.2,20.6h-8.7c0-0.1,0-0.1,0-0.2v-2.3c0-4.2-3.5-7.7-7.7-7.7h-0.6c-4.2,0-7.7,3.5-7.7,7.7v2.4
		c0,0,0,0.1,0,0.1h-7.4c-1.9,0-3.5,1.6-3.5,3.5v22.4c0,2,1.5,3.5,3.5,3.5h32.1c2,0,3.5-1.5,3.5-3.5V24.1
		C49.7,22.1,48.2,20.6,46.2,20.6z M23.5,20.5v-2.4c0-3.1,2.6-5.7,5.7-5.7h0.6c3.1,0,5.7,2.6,5.7,5.7v2.3c0,0.1,0,0.1,0,0.2
		L23.5,20.5C23.5,20.6,23.5,20.5,23.5,20.5z M47.7,46.5c0,0.8-0.7,1.5-1.5,1.5H14.1c-0.8,0-1.5-0.7-1.5-1.5V24.1
		c0-0.9,0.8-1.5,1.5-1.5h32.1c0.8,0,1.5,0.7,1.5,1.5V46.5z"/>
	<path class="st0" d="M36,34.3h-4.8v-4.8c0-0.6-0.4-1-1-1c-0.6,0-1,0.4-1,1v4.8h-4.8c-0.6,0-1,0.4-1,1c0,0.6,0.4,1,1,1h4.8v4.9
		c0,0.6,0.4,1,1,1c0.6,0,1-0.4,1-1v-4.9H36c0.6,0,1-0.4,1-1C37,34.7,36.6,34.3,36,34.3z"/>
</g>
</svg>
