<?xml version="1.0" encoding="utf-8"?>
<!-- Generator: Adobe Illustrator 19.2.0, SVG Export Plug-In . SVG Version: 6.00 Build 0)  -->
<svg version="1.1" id="Layer_1" xmlns="http://www.w3.org/2000/svg" xmlns:xlink="http://www.w3.org/1999/xlink" x="0px" y="0px"
	 viewBox="0 0 60 60" style="enable-background:new 0 0 60 60;" xml:space="preserve">
<style type="text/css">
	.st0{fill:#fff;}
</style>
<title>sector icons</title>
<g>
	<path class="st0" d="M50.8,23.4c-0.3-0.2-0.7-0.2-1,0l-13,8.1v-7.2c0-0.4-0.2-0.7-0.5-0.9c-0.3-0.2-0.7-0.2-1,0l-13,8.1V10.3
		c0-0.6-0.4-1-1-1h-9.9c-0.6,0-1,0.4-1,1v41.4c0,0.6,0.4,1,1,1l38.9,0.1c0.3,0,0.5-0.1,0.7-0.2c0.2-0.2,0.3-0.4,0.3-0.7V24.3
		C51.3,23.9,51.1,23.6,50.8,23.4z M20.3,11.2v5h-7.9c0-1.1,0-5,0-5H20.3z M49.3,50.8l-36.9-0.1c0,0,0-23,0-32.5h7.9v15
		c0,0.4,0.2,0.7,0.5,0.9c0.3,0.2,0.7,0.2,1,0l13-8.1v7.2c0,0.4,0.2,0.7,0.5,0.9c0.3,0.2,0.7,0.2,1,0l13-8.1V50.8z"/>
	<path class="st0" d="M26.6,40h-5.2c-0.6,0-1,0.4-1,1v3.3c0,0.6,0.4,1,1,1c0.6,0,1-0.4,1-1V42h3.2v2.3c0,0.6,0.4,1,1,1
		c0.6,0,1-0.4,1-1V41C27.6,40.4,27.2,40,26.6,40z"/>
	<path class="st0" d="M34.4,41v3.3c0,0.6,0.4,1,1,1c0.6,0,1-0.4,1-1V42h3.2v2.3c0,0.6,0.4,1,1,1c0.6,0,1-0.4,1-1V41c0-0.6-0.4-1-1-1
		h-5.2C34.8,40,34.4,40.4,34.4,41z"/>
</g>
</svg>
