<?xml version="1.0" encoding="utf-8"?>
<!-- Generator: Adobe Illustrator 19.2.0, SVG Export Plug-In . SVG Version: 6.00 Build 0)  -->
<svg version="1.1" id="Layer_1" xmlns="http://www.w3.org/2000/svg" xmlns:xlink="http://www.w3.org/1999/xlink" x="0px" y="0px"
	 viewBox="0 0 60 60" style="enable-background:new 0 0 60 60;" xml:space="preserve">
<style type="text/css">
	.st0{fill:#000;}
</style>
<title>sector icons</title>
<path class="st0" d="M47.2,13.2h-34c-2,0-3.6,1.5-3.6,3.5v22.9c0,2,1.6,3.6,3.6,3.6h12.6v6.1h-5.6c-0.6,0-1,0.4-1,1c0,0.6,0.4,1,1,1
	h20c0.5,0,1-0.4,1-1c0-0.6-0.4-1-1-1h-5.6v-6.1h12.6c2,0,3.6-1.6,3.5-3.6V16.7C50.7,14.8,49.2,13.2,47.2,13.2z M13.2,15.1v0.1h34
	c0.8,0,1.5,0.6,1.5,1.5v19.5H12c-0.1,0-0.3,0-0.4,0.1V16.6C11.6,15.8,12.3,15.1,13.2,15.1z M32.6,49.3h-4.8v-6.1h4.8V49.3z
	 M47.2,41.1h-34c-0.9,0-1.6-0.7-1.6-1.6v-1.4c0.1,0,0.3,0.1,0.4,0.1h36.7v1.3C48.7,40.4,48.1,41.1,47.2,41.1z"/>
</svg>
