<?xml version="1.0" encoding="utf-8"?>
<!-- Generator: Adobe Illustrator 19.2.0, SVG Export Plug-In . SVG Version: 6.00 Build 0)  -->
<svg version="1.1" id="Layer_1" xmlns="http://www.w3.org/2000/svg" xmlns:xlink="http://www.w3.org/1999/xlink" x="0px" y="0px"
	 viewBox="0 0 60 60" style="enable-background:new 0 0 60 60;" xml:space="preserve">
<style type="text/css">
	.st0{fill:#fff;}
</style>
<title>sector icons</title>
<g>
	<path class="st0" d="M52.6,26.9c-0.2-0.2-0.5-0.4-0.8-0.4l-4.2,0l-5.5-10.7c-0.1-0.3-0.4-0.4-0.7-0.5c-0.4-0.1-0.7,0-0.9,0.2
		L38,17.7l-3.7-6.6c-0.2-0.3-0.5-0.5-0.8-0.5c-0.4,0-0.7,0.1-0.9,0.4L20.3,26.6l-3.4,0L14,15c-0.1-0.3-0.3-0.6-0.6-0.7l-5.8-2.6
		c-0.5-0.2-1.1,0-1.3,0.5s0,1.1,0.5,1.3l5.4,2.4l7,28.9c0.1,0.5,0.5,0.8,1,0.8h4.6c0,2.3,0.9,4.4,2.5,6c1.6,1.6,3.8,2.5,6.1,2.5
		c2.3,0,4.5-0.9,6.1-2.5c1.6-1.6,2.5-3.8,2.5-6.1h3.9c0.4,0,0.8-0.3,0.9-0.7l5.9-17C52.8,27.5,52.8,27.2,52.6,26.9z M33.3,13.3
		l3.6,6.4c0.1,0.3,0.4,0.5,0.7,0.5c0.3,0.1,0.6,0,0.8-0.2l2.5-2.2l4.5,8.7H23L33.3,13.3z M38.1,50.2c-1.3,1.2-3,1.9-4.7,1.9
		c-1.8,0-3.5-0.7-4.7-1.9c-1.2-1.3-1.9-2.9-1.9-4.7c0-0.2,0-0.4,0-0.5c0-0.1,0.1-0.2,0.1-0.4c0,0,0-0.1,0-0.1
		c0.2-1.4,0.8-2.7,1.8-3.7c1.3-1.2,2.9-1.9,4.7-1.9c1.8,0,3.4,0.7,4.7,1.9c1.2,1.3,1.9,2.9,1.9,4.7S39.3,49,38.1,50.2z M45.2,43.5
		h-3.4c-0.4-1.5-1.1-3-2.3-4.1c-1.6-1.6-3.8-2.5-6.1-2.5c-2.3,0-4.5,0.9-6.1,2.5c-1.2,1.2-1.9,2.6-2.3,4.2h-4l-3.7-15l33.1-0.1
		L45.2,43.5z"/>
	<ellipse transform="matrix(0.9935 -0.1139 0.1139 0.9935 -4.9653 4.1006)" class="st0" cx="33.4" cy="45.5" rx="2.1" ry="2.1"/>
</g>
</svg>
