<?xml version="1.0" encoding="utf-8"?>
<!-- Generator: Adobe Illustrator 19.2.0, SVG Export Plug-In . SVG Version: 6.00 Build 0)  -->
<svg version="1.1" id="Layer_1" xmlns="http://www.w3.org/2000/svg" xmlns:xlink="http://www.w3.org/1999/xlink" x="0px" y="0px"
	 viewBox="0 0 60 60" style="enable-background:new 0 0 60 60;" xml:space="preserve">
<style type="text/css">
	.st0{fill:#fff;}
</style>
<title>sector icons</title>
<path class="st0" d="M51.2,28.8l-19.6-17c-0.9-0.8-2.2-0.7-2.9,0L14.3,24.4l-5.1,4.5c-0.4,0.4-0.5,1-0.1,1.4
	c0.2,0.2,0.5,0.3,0.8,0.3c0.2,0,0.5-0.1,0.7-0.3l3.6-3.1V47c0,1.1,1,2.1,2.2,2.1h10c0.6,0,1-0.4,1-1V38H33v10.2c0,0.6,0.4,1,1,1h10
	c1.2,0,2.1-0.8,2.3-2V47V27.2l0.7,0.6l2.9,2.5c0.4,0.4,1,0.3,1.4-0.1C51.7,29.8,51.6,29.2,51.2,28.8z M44.3,25.7V47
	c-0.1,0.2-0.3,0.2-0.3,0.2h-9V37c0-0.6-0.4-1-1-1h-7.6c-0.6,0-1,0.4-1,1v10.1h-9c-0.1,0-0.2-0.1-0.2-0.1V25.7c0-0.1,0-0.2,0-0.2
	l13.9-12.2c0-0.1,0.1-0.1,0.2,0l14,12.2C44.3,25.6,44.3,25.6,44.3,25.7z"/>
</svg>
