<?xml version="1.0" encoding="utf-8"?>
<!-- Generator: Adobe Illustrator 19.2.0, SVG Export Plug-In . SVG Version: 6.00 Build 0)  -->
<svg version="1.1" id="Layer_1" xmlns="http://www.w3.org/2000/svg" xmlns:xlink="http://www.w3.org/1999/xlink" x="0px" y="0px"
	 viewBox="0 0 60 60" style="enable-background:new 0 0 60 60;" xml:space="preserve">
<style type="text/css">
	.st0{fill:#fff;}
</style>
<title>sector icons</title>
<path class="st0" d="M50.4,24.8c-0.1-0.4-0.5-0.6-0.9-0.6h-8.1l8.5-10.1c0.2-0.3,0.3-0.7,0.1-1.1c-0.2-0.3-0.6-0.5-1-0.5l-9.1,0.7
	c-0.3,0-0.5,0.2-0.7,0.4l-2.7,3.8c-2.1-3-4-6.2-5.7-9.4l-0.7-1.4c-0.4-0.7-1.5-0.7-1.8,0L27.6,8c-2,3.7-4.2,7.4-6.7,10.8l-0.2,0.3
	c-3.1,4.6-6.1,9-7.5,13.7c-0.6,1.8-0.9,3.8-0.9,5.7c0,3.6,1,7.1,3.1,10.1c2.1,2.9,5.1,5.2,8.6,6.2c1.7,0.6,3.5,0.8,5.2,0.8
	s3.5-0.3,5.2-0.6c3.5-1.1,6.5-3.3,8.6-6.3s3.1-6.5,3.1-10.2c0-2-0.3-3.9-0.9-5.7c-0.2-0.5-0.4-0.9-0.5-1.4l5.5-5.5
	C50.5,25.6,50.6,25.2,50.4,24.8z M43.2,33.4c0.5,1.7,0.8,3.4,0.8,5.1c0,3.3-1,6.4-2.8,9.1c-1.8,2.6-4.5,4.6-7.5,5.5
	c-3,0.9-6.2,0.9-9.2,0c-3-0.9-5.7-2.9-7.5-5.5c-1.9-2.7-2.8-5.8-2.8-9c0-1.7,0.3-3.4,0.8-5.1c1.4-4.4,4.2-8.7,7.3-13.2l0.2-0.3
	c2.5-3.4,4.7-7,6.7-10.7c1.8,3.3,3.9,6.7,6.1,9.8l-7.1,10.1c-0.2,0.3-0.3,0.7-0.1,1c0.2,0.3,0.5,0.5,0.9,0.5h7.9l-7.4,13.1
	c-0.2,0.4-0.1,1,0.3,1.3c0.2,0.1,0.4,0.2,0.6,0.2c0.2,0,0.5-0.1,0.7-0.3l12-12C43.1,33.2,43.2,33.3,43.2,33.4z M35,38.3l4.6-8.1
	c0.2-0.3,0.2-0.7,0-1c-0.2-0.3-0.5-0.5-0.9-0.5H31L40.6,15l6.3-0.5l-8.3,9.9c-0.2,0.3-0.3,0.7-0.1,1.1s0.5,0.6,0.9,0.6h7.8L35,38.3z
	"/>
</svg>
